
<svg width="14px" height="19px" viewBox="0 0 14 19" version="1.1" xmlns="http://www.w3.org/2000/svg" xmlns:xlink="http://www.w3.org/1999/xlink">
    <!-- Generator: Sketch 46.2 (44496) - http://www.bohemiancoding.com/sketch -->
    <desc>Created with Sketch.</desc>
    <defs></defs>
    <g id="Desktop" stroke="none" stroke-width="1" fill="none" fill-rule="evenodd">
        <g id="Dashboard" transform="translate(-367.000000, -173.000000)" fill-rule="nonzero" fill="#8D8D8D">
            <g id="Sub-Header" transform="translate(293.000000, 122.000000)">
                <g id="Second-Line" transform="translate(25.000000, 34.000000)">
                    <g id="Building-Icon" transform="translate(48.989229, 17.900794)">
                        <g id="Group-4">
                            <path d="M1.95106785,5.06526107 L1.95106785,17.3774671 L5.43791933,17.3774671 L5.43791933,13.3232173 L8.33369435,13.3232173 L8.33369435,17.3775202 L11.820599,17.3775202 L11.820599,5.06526107 L6.88582013,1.76249315 L1.95106785,5.06526107 Z M5.14830728,12.7440463 L3.41084758,12.7440463 L3.41084758,11.0065335 L5.14830728,11.0065335 L5.14830728,12.7440463 Z M5.14830728,10.1378036 L3.41084758,10.1378036 L3.41084758,8.40045022 L5.14830728,8.40045022 L5.14830728,10.1378036 Z M5.14830728,7.53166723 L3.41084758,7.53166723 L3.41084758,5.79415438 L5.14830728,5.79415438 L5.14830728,7.53166723 Z M8.62325325,5.79415438 L10.3607927,5.79415438 L10.3607927,7.53166723 L8.62325325,7.53166723 L8.62325325,5.79415438 Z M8.62325325,8.40042365 L10.3607927,8.40042365 L10.3607927,10.137777 L8.62325325,10.137777 L8.62325325,8.40042365 Z M8.62325325,11.0065335 L10.3607927,11.0065335 L10.3607927,12.7440463 L8.62325325,12.7440463 L8.62325325,11.0065335 Z M7.75465628,12.7440463 L6.01709028,12.7440463 L6.01709028,11.0065335 L7.75465628,11.0065335 L7.75465628,12.7440463 Z M7.75465628,10.1378036 L6.01709028,10.1378036 L6.01709028,8.40045022 L7.75465628,8.40045022 L7.75465628,10.1378036 Z M7.75465628,7.53166723 L6.01709028,7.53166723 L6.01709028,5.79415438 L7.75465628,5.79415438 L7.75465628,7.53166723 Z" id="Shape"></path>
                            <polygon id="Shape" points="6.72467061 1.17354268 7.04699622 1.17354268 12.143589 4.58431054 13.7634287 4.58431054 6.88582013 0.002391731 0.00823818456 4.58431054 1.62802472 4.58431054"></polygon>
                        </g>
                    </g>
                </g>
            </g>
        </g>
    </g>
</svg>