<?xml version="1.0" encoding="UTF-8"?>
<svg width="21px" height="30px" viewBox="0 0 21 30" version="1.1" xmlns="http://www.w3.org/2000/svg" xmlns:xlink="http://www.w3.org/1999/xlink">
    <!-- Generator: Sketch 47.1 (45422) - http://www.bohemiancoding.com/sketch -->
    <title>csv</title>
    <desc>Created with Sketch.</desc>
    <defs></defs>
    <g id="Page-1" stroke="none" stroke-width="1" fill="none" fill-rule="evenodd">
        <g id="csv" fill-rule="nonzero" fill="#5C5C5C">
            <path d="M20.9938514,7.18908065 C20.9927478,7.05177178 20.950338,6.9156067 20.8592121,6.80819968 L15.2782501,0.200925196 C15.2766209,0.199018885 15.2749918,0.198474225 15.2738357,0.196731312 C15.24057,0.158278292 15.2017863,0.126796925 15.1607954,0.098529054 C15.1486032,0.0906314792 15.1364111,0.0830062345 15.1236408,0.075544388 C15.0881679,0.0555553538 15.0504879,0.0393244759 15.0117042,0.0272874826 C15.0011411,0.0238561225 14.9917343,0.0193899078 14.9812238,0.0165576741 C14.9390767,0.00620912778 14.8953006,0 14.8509463,0 L1.13513229,0 C0.508812541,0 0,0.527939259 0,1.17652078 L0,28.8234792 C0,29.4720063 0.508812541,30 1.13513229,30 L19.8648152,30 C20.4906094,30 21,29.4720607 21,28.8234792 L21,7.25498455 C20.9999474,7.23259901 20.9966366,7.21092153 20.9938514,7.18908065 Z M5.54433297,26.9972876 C6.01367864,26.9972876 6.53468335,26.8916235 6.84116907,26.7646632 L7.07618349,28.024408 C6.79008811,28.1726646 6.14684648,28.3317599 5.30905578,28.3317599 C2.92890408,28.3317599 1.70301376,26.7963079 1.70301376,24.7639079 C1.70301376,22.328786 3.37838494,20.9736711 5.46203588,20.9736711 C6.26903086,20.9736711 6.88205485,21.1428426 7.15821782,21.2913715 L6.84116907,22.5720858 C6.52480349,22.4345591 6.08514994,22.3081434 5.53382249,22.3081434 C4.2979472,22.3081434 3.33797213,23.0807985 3.33797213,24.6682111 C3.33791957,26.0976721 4.15489951,26.9972876 5.54433297,26.9972876 Z M9.78399954,28.3317054 C8.99760511,28.3317054 8.22098543,28.1197236 7.83299091,27.8974477 L8.14935648,26.5635746 C8.56851459,26.7859049 9.21186133,27.0081808 9.87591372,27.0081808 C10.5908894,27.0081808 10.968899,26.700829 10.968899,26.234981 C10.968899,25.7903748 10.6421806,25.5365086 9.81469015,25.2297014 C8.67083416,24.8166855 7.92516785,24.1606966 7.92516785,23.1232276 C7.92516785,21.9054215 8.90569093,20.9736167 10.5299286,20.9736167 C11.3061804,20.9736167 11.8784237,21.1427882 12.2866509,21.3338005 L11.9396999,22.6360289 C11.6633792,22.4981754 11.1736958,22.2970868 10.4991329,22.2970868 C9.82514809,22.2970868 9.49827203,22.6147872 9.49827203,22.9853196 C9.49827203,23.4411458 9.88610889,23.6419076 10.7754535,23.9911983 C11.9906757,24.4573731 12.5629716,25.1130896 12.5629716,26.1189139 C12.5623935,27.3149335 11.6738897,28.3317054 9.78399954,28.3317054 Z M17.0574648,28.2251698 L15.2394664,28.2251698 L13.0330004,21.0899561 L14.7390097,21.0899561 L15.5765376,24.1075377 C15.811552,24.9542667 16.026071,25.7694053 16.1895616,26.6589446 L16.220042,26.6589446 C16.3935175,25.801268 16.6080365,24.9542667 16.8429984,24.1394004 L17.7215172,21.0902829 L19.3765506,21.0902829 L17.0574648,28.2251698 Z M1.13513229,19.9755266 L1.13513229,1.17652078 L14.2833276,1.17652078 L14.2833276,7.19616123 C14.2833276,7.52088772 14.5377864,7.78439439 14.8509463,7.78439439 L19.8648152,7.78439439 L19.8648152,19.9759079 L1.13513229,19.9759079 L1.13513229,19.9755266 Z" id="Shape"></path>
            <path d="M14.9938417,9.31034483 L11.6819538,9.31034483 L11.5662988,9.31034483 L8.25436084,9.31034483 L8.25436084,9.31034483 L5,9.31034483 L5,10.8318707 L5,10.9460515 L5,12.3535006 L5,12.4738773 L5,13.8757033 L5,13.9955593 L5,15.5172414 L8.42769311,15.5172414 L8.42769311,15.5172414 L15,15.5172414 L15,10.6913444 L14.9938918,10.6913444 L14.9938918,9.31034483 L14.9938417,9.31034483 Z M8.31188793,15.3975416 L5.11570504,15.3975416 L5.11570504,13.9955593 L8.31183786,13.9955593 L8.31183786,15.3975416 L8.31188793,15.3975416 Z M8.31188793,13.8757033 L5.11570504,13.8757033 L5.11570504,12.4738773 L8.31183786,12.4738773 L8.31183786,13.8757033 L8.31188793,13.8757033 Z M8.31188793,12.3535006 L5.11570504,12.3535006 L5.11570504,10.9522473 L8.25431078,10.9522473 L8.31183786,10.9522473 L8.31183786,12.3535006 L8.31188793,12.3535006 Z M8.37011596,10.8318707 L8.37011596,9.43061738 L11.5662988,9.43061738 L11.5662988,10.8318707 L8.42764304,10.8318707 L8.37011596,10.8318707 Z M14.8644684,15.376611 L13.6024273,15.376611 L13.6024273,11.3624236 L12.7359161,11.3624236 L12.7359161,15.376611 L12.0140488,15.376611 L12.0140488,12.1938141 L11.1474876,12.1938141 L11.1474876,15.376611 L10.5117357,15.376611 L10.5117357,13.0147914 L9.6450744,13.0147914 L9.6450744,15.376611 L8.42739271,15.376611 L8.42739271,13.9955593 L8.42739271,13.8757033 L8.42739271,12.4738773 L8.42739271,12.3535006 L8.42739271,10.9522473 L11.5659984,10.9522473 L11.6819038,10.9522473 L14.8644183,10.9522473 L14.8644183,15.376611 L14.8644684,15.376611 Z M14.8781868,10.6912924 L14.8644684,10.6912924 L14.8644684,10.8318707 L11.6819538,10.8318707 L11.6819538,9.43061738 L14.8782368,9.43061738 L14.8782368,10.6912924 L14.8781868,10.6912924 Z" id="Shape"></path>
        </g>
    </g>
</svg>