<svg width="27px" height="25px" viewBox="0 0 27 25" version="1.1" xmlns="http://www.w3.org/2000/svg" xmlns:xlink="http://www.w3.org/1999/xlink">
    <!-- Generator: Sketch 46.2 (44496) - http://www.bohemiancoding.com/sketch -->
    <desc>Created with Sketch.</desc>
    <defs></defs>
    <g id="Desktop" stroke="none" stroke-width="1" fill="none" fill-rule="evenodd">
        <g id="Dashboard" transform="translate(-1389.000000, -29.000000)" fill-rule="nonzero" fill="#FFFFFF">
            <g id="Header" transform="translate(324.000000, -4.000000)">
                <g id="Logout-Btn" transform="translate(1035.976562, 3.536158)">
                    <g id="Group-2" transform="translate(30.000000, 30.000000)">
                        <path d="M14.9581994,18.7727985 C14.6166298,18.7232134 14.3245937,18.9876677 14.3245937,19.3182356 L14.3245937,23.1748789 L1.10187593,23.1748789 L1.10187593,1.13699877 L14.3245937,1.13699877 L14.3245937,4.9771136 C14.3245937,5.25256966 14.5229344,5.50049562 14.7929155,5.5390791 C15.1344851,5.58866429 15.4265212,5.32420994 15.4265212,4.99364199 L15.4265212,0.586086633 C15.4265212,0.283048801 15.1785953,0.035122844 14.8755574,0.035122844 L0.550963789,0.035122844 C0.247925957,0.035122844 0,0.283048801 0,0.586086633 L0,23.7258427 C0,24.0288805 0.247925957,24.2768064 0.550963789,24.2768064 L14.8755574,24.2768064 C15.1785953,24.2768064 15.4265212,24.0288805 15.4265212,23.7258427 L15.4265212,19.3348157 C15.4265212,19.059308 15.2281805,18.811382 14.9581994,18.7727985 Z" id="Shape"></path>
                        <path d="M25.1837506,11.7702848 L19.6743193,6.26080189 C19.4539235,6.05145941 19.1068271,6.05693444 18.8974846,6.27180361 C18.6936172,6.48667277 18.6936172,6.82276739 18.8974846,7.03763656 L23.4648489,11.6050009 L6.62788726,11.6050009 C6.35790622,11.6050009 6.11550695,11.7923399 6.07144844,12.0622693 C6.01086153,12.4093656 6.28079092,12.7068768 6.61688555,12.7068768 L23.470324,12.7068768 L18.8974846,17.2742411 C18.6770888,17.4835836 18.6716138,17.8362066 18.8864829,18.0510757 C19.0958254,18.2714716 19.4484484,18.2769466 19.6633176,18.0620775 C19.667002,18.058393 21.5071636,16.2182315 25.1838022,12.5415928 C25.3986198,12.337777 25.3986198,11.985154 25.1837506,11.7702848 Z" id="Shape"></path>
                    </g>
                </g>
            </g>
        </g>
    </g>
</svg>