<svg width="21px" height="21px" viewBox="0 0 21 21" version="1.1" xmlns="http://www.w3.org/2000/svg" xmlns:xlink="http://www.w3.org/1999/xlink">
    <!-- Generator: Sketch 46.2 (44496) - http://www.bohemiancoding.com/sketch -->
    <desc>Created with Sketch.</desc>
    <defs></defs>
    <g id="Desktop" stroke="none" stroke-width="1" fill="none" fill-rule="evenodd">
        <g id="Dashboard" transform="translate(-43.000000, -129.000000)" fill-rule="nonzero" fill="#FFFFFF">
            <g id="Navigation-Menu" transform="translate(-1.000000, -4.000000)">
                <g id="Nav-Links" transform="translate(0.000000, 115.000000)">
                    <g id="Dashboard">
                        <g id="Dashboard-Icon" transform="translate(44.051852, 18.146739)">
                            <g id="Group-3">
                                <path d="M16.9507189,20.3656626 L3.27767918,20.3656626 C3.10953059,20.3656626 2.97306216,20.2282764 2.97306216,20.058997 L2.97306216,9.49927366 C2.97306216,9.32999425 3.10953059,9.19260806 3.27767918,9.19260806 L16.9507189,9.19260806 C17.1188675,9.19260806 17.255336,9.32999425 17.255336,9.49927366 L17.255336,20.058997 C17.255336,20.2288897 17.1194768,20.3656626 16.9507189,20.3656626 Z M3.58229621,19.7523314 L16.6461019,19.7523314 L16.6461019,9.80593926 L3.58229621,9.80593926 L3.58229621,19.7523314 Z" id="Shape"></path>
                                <path d="M19.7842665,9.80593926 L0.445959324,9.80593926 C0.321066344,9.80593926 0.208967279,9.72927286 0.162665491,9.61273993 C0.116972937,9.496207 0.146216172,9.36311413 0.236382811,9.27663443 L9.90431793,0.0840263747 C10.0219001,-0.0282132353 10.2052796,-0.0275999041 10.323471,0.0840263747 L19.993843,9.27663443 C20.0840097,9.36311413 20.1132529,9.496207 20.0675603,9.61273993 C20.0206493,9.72927286 19.9091595,9.80593926 19.7842665,9.80593926 Z M1.21176652,9.19260806 L19.0178501,9.19260806 L10.1138944,0.728637468 L1.21176652,9.19260806 Z" id="Shape"></path>
                                <path d="M12.5270705,20.3656626 L7.70315531,20.3656626 C7.53500672,20.3656626 7.39853829,20.2282764 7.39853829,20.058997 L7.39853829,13.4669132 C7.39853829,13.2976338 7.53500672,13.1602476 7.70315531,13.1602476 L12.5270705,13.1602476 C12.6952191,13.1602476 12.8316875,13.2976338 12.8316875,13.4669132 L12.8316875,20.058997 C12.8316875,20.2288897 12.6952191,20.3656626 12.5270705,20.3656626 Z M8.00777234,19.7523314 L12.2224535,19.7523314 L12.2224535,13.7735788 L8.00777234,13.7735788 L8.00777234,19.7523314 L8.00777234,19.7523314 Z" id="Shape"></path>
                                <path d="M16.9507189,7.08581538 C16.7825703,7.08581538 16.6461019,6.94842919 16.6461019,6.77914978 L16.6461019,3.02740281 C16.6461019,2.8581234 16.7825703,2.72073721 16.9507189,2.72073721 C17.1188675,2.72073721 17.255336,2.8581234 17.255336,3.02740281 L17.255336,6.77914978 C17.255336,6.94842919 17.1194768,7.08581538 16.9507189,7.08581538 Z" id="Shape"></path>
                            </g>
                        </g>
                    </g>
                </g>
            </g>
        </g>
    </g>
</svg>