<svg width="23px" height="24px" viewBox="0 0 23 24" version="1.1" xmlns="http://www.w3.org/2000/svg" xmlns:xlink="http://www.w3.org/1999/xlink">
    <!-- Generator: Sketch 46.2 (44496) - http://www.bohemiancoding.com/sketch -->
    <desc>Created with Sketch.</desc>
    <defs></defs>
    <g id="Desktop" stroke="none" stroke-width="1" fill="none" fill-rule="evenodd">
        <g id="Dashboard" transform="translate(-415.000000, -470.000000)" fill-rule="nonzero" fill="#818181">
            <g id="Body" transform="translate(310.000000, 85.000000)">
                <g id="KPI" transform="translate(45.000000, 170.000000)">
                    <g id="Jiras" transform="translate(41.000000, 47.000000)">
                        <g id="Bottom-Rectangle" transform="translate(1.000000, 0.000000)">
                            <g id="Cog-Icon" transform="translate(18.000000, 168.582031)">
                                <path d="M12.8240804,9.97428479 C13.2116527,10.361857 13.4054388,10.8368229 13.4054388,11.3991826 C13.4054388,11.9615423 13.2116527,12.4365082 12.8240804,12.8240804 C12.4365082,13.2116527 11.9615423,13.4054388 11.3991826,13.4054388 C10.8368229,13.4054388 10.361857,13.2116527 9.97428479,12.8240804 C9.58671259,12.4365082 9.39292648,11.9615423 9.39292648,11.3991826 C9.39292648,10.8368229 9.58671259,10.361857 9.97428479,9.97428479 C10.361857,9.58671259 10.8368229,9.39292648 11.3991826,9.39292648 C11.9615423,9.39292648 12.4365082,9.58671259 12.8240804,9.97428479 Z M22.7983652,11.3991826 C22.7983652,12.4479074 22.6615751,13.4586349 22.3879947,14.4313652 C22.1143025,15.4039837 21.7306418,16.3121186 21.2366772,17.1557698 C20.7427126,17.9993094 20.1499551,18.7668543 19.4584047,19.4584047 C18.7669288,20.1499551 17.9993094,20.7428244 17.1557698,21.2366772 C16.3121558,21.7306418 15.4040954,22.1144143 14.4312907,22.3879947 C13.4586349,22.6615751 12.4479074,22.7983652 11.3991826,22.7983652 C10.3504578,22.7983652 9.3397303,22.6615751 8.36700004,22.3879947 C7.39426979,22.1143025 6.48613491,21.7306418 5.6425954,21.2366772 C4.79905588,20.7427126 4.03151092,20.1499551 3.33996051,19.4584047 C2.6484101,18.7669288 2.0556526,17.9993094 1.56168802,17.1557698 C1.06772344,16.3121558 0.683950957,15.4040954 0.410370574,14.4313279 C0.136790191,13.4586349 0,12.4479074 0,11.3991826 C0,10.3504578 0.136790191,9.3397303 0.410370574,8.36700004 C0.683950957,7.39426979 1.06772344,6.48613491 1.56168802,5.6425954 C2.0556526,4.79905588 2.6484101,4.03151092 3.33996051,3.33996051 C4.03151092,2.6484101 4.79905588,2.0556526 5.6425954,1.56168802 C6.48613491,1.06772344 7.39426979,0.683950957 8.36700004,0.410370574 C9.3397303,0.136790191 10.3504578,0 11.3991826,0 C12.9646704,0 14.4427644,0.300178476 15.8334647,0.900535427 C17.2241649,1.50089238 18.4324783,2.31403407 19.4584047,3.33996051 C20.4843312,4.36588694 21.2974729,5.5742003 21.8978298,6.96490058 C22.4981868,8.35560086 22.7983652,9.83369488 22.7983652,11.3991826 Z M18.2158938,10.6468366 C18.2158938,10.5556431 18.1816963,10.4758488 18.1133012,10.4074537 C18.0449061,10.3390586 17.9650746,10.3048611 17.8738066,10.3048611 L16.1411308,10.1224742 C16.0955341,9.90968943 16.0309387,9.70830387 15.9473447,9.51831749 C15.8637507,9.32833111 15.7687575,9.13454501 15.6624769,8.93695918 L16.7567985,7.59185563 C16.8935886,7.42466761 16.8859892,7.26507906 16.7340001,7.11308996 L15.6852753,6.06436515 C15.6092807,5.9883706 15.5257985,5.95037333 15.434605,5.95037333 C15.3434116,5.95037333 15.267417,5.98077115 15.2066214,6.04156679 L13.8615178,7.13588832 C13.663932,7.02949595 13.4701459,6.93450276 13.280234,6.85090876 C13.0901359,6.76731475 12.8888621,6.70268213 12.6760773,6.65712265 L12.4936904,4.92444689 C12.4936904,4.83325343 12.4594929,4.75345915 12.3910978,4.68506406 C12.3227027,4.61666896 12.2428711,4.58247141 12.1517149,4.58247141 L10.6470228,4.58247141 C10.5558294,4.58247141 10.4760351,4.61666896 10.40764,4.68506406 C10.3392449,4.75345915 10.3050474,4.83325343 10.3050474,4.92444689 L10.1226604,6.65712265 C9.90987569,6.70271938 9.70849013,6.76731475 9.51850375,6.85090876 C9.32851737,6.93450276 9.13473127,7.02949595 8.93714544,7.13588832 L7.59200464,6.04156679 C7.53120899,5.98077115 7.45521444,5.95037333 7.36402098,5.95037333 C7.27282752,5.95037333 7.18923352,5.9883706 7.11323897,6.06436515 L6.06451416,7.11308996 C5.91252506,7.26507906 5.90492561,7.42466761 6.0417158,7.59185563 L7.13603733,8.93695918 C7.02964496,9.13454501 6.93465177,9.32833111 6.85105776,9.51831749 C6.76746376,9.70830387 6.70286839,9.90968943 6.65727166,10.1224742 L4.9245959,10.3048611 C4.83340244,10.3048611 4.75360816,10.3390586 4.68521307,10.4074537 C4.61681797,10.4758488 4.58262042,10.5556431 4.58262042,10.6468366 L4.58262042,12.1515287 C4.58262042,12.2426104 4.61681797,12.3225164 4.68521307,12.3909115 C4.75360816,12.4593066 4.83340244,12.4935042 4.9245959,12.4935042 L6.65727166,12.6758911 C6.70286839,12.8887131 6.76746376,13.0899869 6.85105776,13.280085 C6.93465177,13.4700714 7.02964496,13.6638575 7.13603733,13.8613688 L6.0417158,15.2064724 C5.90492561,15.3736604 5.91252506,15.5332117 6.06451416,15.685238 L7.11323897,16.7339628 C7.18923352,16.8099574 7.27282752,16.8479919 7.36402098,16.8479919 C7.45521444,16.8479919 7.53120899,16.8176686 7.59200464,16.756873 L8.93710818,15.6625514 C9.13469402,15.7688693 9.32848012,15.8638252 9.5184665,15.9474192 C9.70845288,16.0310132 9.90983844,16.0956459 10.1226232,16.1412053 L10.3050101,17.8738811 C10.3050101,17.9650746 10.3392076,18.0449433 10.4076027,18.1133757 C10.4759978,18.1817708 10.5557921,18.2159683 10.6469856,18.2159683 L12.1516777,18.2159683 C12.2428339,18.2159683 12.3226654,18.1817708 12.3910605,18.1133757 C12.4594556,18.0449433 12.4936532,17.9651491 12.4936532,17.8738811 L12.6760401,16.1412053 C12.8888248,16.0956086 13.0900986,16.0310132 13.2801968,15.9474192 C13.4701831,15.8638252 13.6639692,15.768832 13.8614806,15.6625142 L15.2065841,16.756873 C15.2673798,16.8176686 15.3433743,16.8479919 15.4345678,16.8479919 C15.5257612,16.8479919 15.6092435,16.8099574 15.685238,16.7339628 L16.7339628,15.685238 C16.8859519,15.5332489 16.8935514,15.3737349 16.7567612,15.2064724 L15.6624397,13.8613688 C15.7687575,13.663783 15.8637135,13.4699969 15.9473075,13.280085 C16.0309015,13.0899869 16.0955341,12.8886758 16.1410936,12.6758911 L17.8737693,12.4935042 C17.9649628,12.4935042 18.0448688,12.4593066 18.1132639,12.3909115 C18.181659,12.3225164 18.2158566,12.2426849 18.2158566,12.1515287 L18.2158566,10.6468366 L18.2158938,10.6468366 Z" id="Shape"></path>
                            </g>
                        </g>
                    </g>
                </g>
            </g>
        </g>
    </g>
</svg>