<?xml version="1.0" encoding="UTF-8"?>
<svg width="146px" height="31px" viewBox="0 0 146 31" version="1.1" xmlns="http://www.w3.org/2000/svg" xmlns:xlink="http://www.w3.org/1999/xlink">
    <!-- Generator: Sketch 46.1 (44463) - http://www.bohemiancoding.com/sketch -->
    <title>Paxport Logo</title>
    <desc>Created with Sketch.</desc>
    <defs>
        <polygon id="path-1" points="0.0288488134 20.8745206 0.0288488134 0.197133558 17.9896392 0.197133558 17.9896392 20.8745206"></polygon>
    </defs>
    <g id="Desktop" stroke="none" stroke-width="1" fill="none" fill-rule="evenodd">
        <g id="Dashboard" transform="translate(-38.000000, -28.000000)">
            <g id="Navigation-Menu" transform="translate(-1.000000, -4.000000)">
                <g id="Paxport-Logo" transform="translate(39.000000, 32.496340)">
                    <path d="M71.3921586,12.9641759 L74.9617184,4.69370194 C75.2713624,4.64706303 75.5834104,4.61484852 75.8949776,4.5927311 C76.2051023,4.57061367 76.5171503,4.55811252 76.8291983,4.55811252 C77.4297344,4.55811252 77.9860357,4.60427062 78.4961789,4.69370194 L74.5261014,12.8319522 L79.1630673,21.8015291 C78.8515001,21.8472064 78.5519533,21.8827866 78.2625035,21.9025 C77.9720921,21.925579 77.6725453,21.9375994 77.3624205,21.9375994 C76.7623652,21.9375994 76.2051023,21.8943261 75.6944783,21.8015291 L71.3921586,12.9641759 Z M68.023098,12.9300382 L63.987149,4.69370194 C64.4982538,4.60427062 65.0757109,4.55811252 65.7209627,4.55811252 C66.0315682,4.55811252 66.3373657,4.57061367 66.6373933,4.5927311 C66.9383826,4.61484852 67.2557196,4.64706303 67.589885,4.69370194 L71.1253071,12.9641759 L66.8552019,21.8015291 C66.5662329,21.8472064 66.2830337,21.8827866 66.0060851,21.9025 C65.7262516,21.925579 65.4536303,21.9375994 65.1887021,21.9375994 C64.8756925,21.9375994 64.5761456,21.925579 64.2871767,21.9025 C63.9986885,21.8827866 63.6976992,21.8472064 63.3870937,21.8015291 L68.023098,12.9300382 L68.023098,12.9300382 Z" id="Fill-1" fill="#FFFFFF"></path>
                    <path d="M118.222918,5.03844527 C118.222918,5.03844527 118.233015,4.72687808 118.486885,4.64706303 C118.636899,4.62638805 118.782585,4.6071555 118.922983,4.5927311 C119.14608,4.57061367 119.378794,4.55811252 119.623528,4.55811252 C119.868743,4.55811252 120.113958,4.57061367 120.358211,4.5927311 C120.494281,4.60427062 120.622659,4.62638805 120.744305,4.64081245 C120.990962,4.66966127 121.062122,4.88458493 121.080874,4.99276798 C121.130398,5.27789042 121.177998,5.61542153 121.225118,6.01065028 C121.292432,6.55445041 121.325127,7.01699305 121.325127,7.39395088 C121.792478,6.63955441 122.410324,5.98228228 123.177221,5.42598099 C123.94508,4.86967971 124.928344,4.5927311 126.129416,4.5927311 C126.306356,4.5927311 126.490027,4.59705842 126.678505,4.60859795 C127.253078,4.62638805 127.241538,5.07210221 127.262213,5.29183401 C127.284811,5.5149315 127.29587,5.74956852 127.29587,5.99478343 C127.29587,6.26067333 127.279042,6.53810275 127.245865,6.82803333 C127.212209,7.11652146 127.174705,7.60406641 126.580419,7.59541176 C126.390017,7.59541176 126.240965,7.59541176 126.129416,7.59541176 C125.52888,7.59541176 124.956231,7.67955413 124.410989,7.84447318 C123.866708,8.0117963 123.37724,8.30701583 122.944507,8.72917013 C122.510814,9.15084362 122.16607,9.72781989 121.909797,10.4644263 C121.653042,11.1976669 121.526107,12.1415039 121.526107,13.2988222 L121.526107,21.8015291 C121.280892,21.8472064 121.00779,21.8827866 120.708724,21.9025 C120.407735,21.925579 120.135595,21.9375994 119.89038,21.9375994 C119.645165,21.9375994 119.374948,21.925579 119.074439,21.9025 C118.774411,21.8827866 118.490731,21.8472064 118.222918,21.8015291 L118.222918,5.03844527" id="Fill-2" fill="#FFFFFF"></path>
                    <path d="M140.692778,20.5028517 C140.661045,20.0355009 140.565363,19.5801705 140.409579,19.1344563 C140.143208,19.202251 139.843181,19.2637952 139.510458,19.3195695 C139.176292,19.3748631 138.819529,19.4037119 138.440648,19.4037119 C137.952622,19.4037119 137.545853,19.3541881 137.225151,19.2522556 C136.902044,19.1512848 136.646732,18.9541512 136.45633,18.6507579 C136.267851,18.3507302 136.134666,17.9247294 136.056293,17.3660241 C135.979363,16.8121268 135.940898,16.0678275 135.940898,15.1321643 L135.940898,7.3271178 L140.276874,7.3271178 C140.320148,7.10642437 140.352843,6.88284607 140.376884,6.66071021 C140.400444,6.43809353 140.409579,6.20537977 140.409579,5.96112648 C140.409579,5.4937757 140.364863,5.07210221 140.276874,4.69370194 L135.940898,4.69370194 L135.940898,0.455811252 L135.938494,0.455811252 L135.938494,0.437059523 C135.46922,0.326472405 134.947537,0.27165966 134.368637,0.27165966 C134.065725,0.27165966 133.773871,0.285603253 133.500288,0.312047999 C133.224782,0.340896812 132.948314,0.381765964 132.672808,0.437059523 L132.672808,4.69370194 L130.001408,4.69370194 C129.912938,5.07210221 129.868223,5.4937757 129.868223,5.96112648 C129.868223,6.20537977 129.879762,6.43809353 129.901399,6.66071021 C129.924959,6.88284607 129.956692,7.10642437 130.001408,7.3271178 L132.672808,7.3271178 L132.672808,17.0333011 C132.672808,18.8358711 133.121888,20.1254131 134.022452,20.9038502 C134.924458,21.683249 136.173612,22.0712655 137.775682,22.0712655 C138.33006,22.0712655 138.854628,22.0414551 139.342654,21.9871232 C139.831641,21.9318296 140.298511,21.8472064 140.743744,21.7375809 C140.743744,21.384183 140.725954,20.9711641 140.692778,20.5028517" id="Fill-3" fill="#FFFFFF"></path>
                    <path d="M37.4005634,19.4503508 C36.091308,19.4503508 34.7868609,19.3479375 33.5819421,18.8897222 L33.5819421,9.75474545 C33.5819421,7.9834283 34.9628386,7.09921217 37.6534713,7.09921217 C39.7781864,7.09921217 42.2221617,7.84254993 42.2221617,13.5796173 C42.2221617,18.8897222 39.949356,19.4503508 37.4005634,19.4503508 Z M30.324911,9.96822667 L30.3263535,29.6753319 C30.5706068,29.7181243 30.7980316,29.7517813 31.0980592,29.775822 C31.3990485,29.7974586 31.671189,29.8104405 31.9154423,29.8104405 C32.1596956,29.8104405 32.4332785,29.7974586 32.7323445,29.775822 C33.0338146,29.7517813 33.3155714,29.7181243 33.5833845,29.6753319 L33.5819421,21.8361477 C34.7868609,22.1900265 36.1268882,22.2164712 37.4005634,22.2164712 C41.1196562,22.2164712 45.3931271,20.3427408 45.4787119,13.5796173 C45.4787119,5.47021584 40.5575852,4.26673951 37.6534713,4.26673951 C30.8557292,4.26673951 30.324911,8.62098708 30.324911,9.96822667 Z" id="Fill-4" fill="#FFFFFF"></path>
                    <path d="M89.3274659,19.4503508 C88.017249,19.4503508 86.7128018,19.3479375 85.507883,18.8897222 L85.507883,9.75474545 C85.507883,7.9834283 86.8897412,7.09921217 89.579893,7.09921217 C91.7046081,7.09921217 94.1495451,7.84254993 94.1495451,13.5796173 C94.1495451,18.8897222 91.8757778,19.4503508 89.3274659,19.4503508 Z M89.579893,4.26673951 C82.7826318,4.26673951 82.2527752,8.62098708 82.2527752,9.96822667 L82.2527752,29.6753319 C82.4975093,29.7181243 82.7244533,29.7517813 83.0264042,29.775822 C83.3240278,29.7974586 83.5971299,29.8104405 83.8413832,29.8104405 C84.0856365,29.8104405 84.3597002,29.7974586 84.6582854,29.775822 C84.9607172,29.7517813 85.2424739,29.7181243 85.5093254,29.6753319 L85.507883,21.8361477 C86.7128018,22.1900265 88.0528292,22.2164712 89.3274659,22.2164712 C93.0455971,22.2164712 97.3214721,20.3427408 97.4056145,13.5796173 C97.4056145,5.47021584 92.4849685,4.26673951 89.579893,4.26673951 L89.579893,4.26673951 Z" id="Fill-5" fill="#FFFFFF"></path>
                    <path d="M112.237751,13.2584338 C112.237751,7.86322491 109.971677,7.13238831 107.470004,7.13238831 C104.969293,7.13238831 102.699372,7.86322491 102.699372,13.2584338 C102.699372,18.6526811 104.969293,19.3844794 107.470004,19.3844794 C109.971677,19.3844794 112.237751,18.6526811 112.237751,13.2584338 Z M115.309188,13.2584338 C115.309188,20.6389219 111.040525,22.2044509 107.470004,22.2044509 C103.899963,22.2044509 99.6303388,20.6389219 99.6303388,13.2584338 C99.6303388,5.87938818 103.899963,4.31241679 107.470004,4.31241679 C111.040525,4.31241679 115.309188,5.87938818 115.309188,13.2584338 L115.309188,13.2584338 Z" id="Fill-6" fill="#FFFFFF"></path>
                    <path d="M57.7846541,18.0434904 C57.5798275,18.5541144 55.2844236,19.5484368 53.8227504,19.5484368 C51.9821961,19.5484368 50.9027697,19.3162038 50.9027697,17.0299354 L50.9027697,16.649131 C50.9027697,14.3945963 51.9187287,13.5377865 55.7599482,13.5377865 L57.7846541,13.5377865 L57.7846541,18.0434904 Z M54.7218718,4.25856568 C52.7409199,4.3162633 51.2249148,4.74274493 49.8959461,5.20336432 C49.4718685,5.34953164 49.1670327,5.49906465 49.2295385,5.80630452 C49.2295385,5.80630452 49.6036114,7.88197664 50.3921457,7.82187495 C50.9407539,7.75119535 52.6490845,6.95929543 54.7127363,6.95929543 C56.6984963,6.9477559 57.7846541,7.60118152 57.7846541,10.2682543 L57.7846541,10.9687997 L55.7599482,10.9687997 C50.1099081,10.9687997 47.7842129,13.2757431 47.7842129,16.703463 L47.7842129,17.0852289 C47.7842129,21.0529024 50.5854327,22.2044509 53.2837584,22.2044509 C55.0536331,22.2044509 56.3133646,21.5438131 57.8274465,20.6600777 L57.8274465,21.7779693 C58.058237,21.8183576 58.2726799,21.8505721 58.5568407,21.874132 C58.8400399,21.8943261 59.0958327,21.9058657 59.327104,21.9058657 C59.5583753,21.9058657 59.8165722,21.8943261 60.0997714,21.874132 C60.3820089,21.8505721 60.6512645,21.8183576 60.90273,21.7779693 L60.90273,10.2682543 C60.90273,6.52175509 59.1314129,4.12922683 54.7218718,4.25856568 L54.7218718,4.25856568 Z" id="Fill-7" fill="#FFFFFF"></path>
                    <path d="M21.7188292,7.85408946 L20.349953,10.648097 C19.9253946,11.5140423 19.9436655,12.9213835 20.3908221,13.7757892 L21.9217325,16.7049054 C22.436203,15.4100745 22.7213255,13.9984059 22.7213255,12.5194234 C22.7213255,10.8562893 22.3607153,9.27729759 21.7188292,7.85408946" id="Fill-8" fill="#FFFFFF"></path>
                    <g id="Group-12" transform="translate(0.000000, 0.961627)">
                        <mask id="mask-2" fill="white">
                            <use xlink:href="#path-1"></use>
                        </mask>
                        <g id="Clip-10"></g>
                        <path d="M14.5325898,9.87398721 C14.5840368,9.99563304 14.62731,10.1292992 14.6633711,10.269216 C14.7056826,10.073044 14.7571297,9.88408429 14.8282901,9.71820362 L17.8367405,2.68053558 C17.8877068,2.56225545 17.938673,2.44686019 17.9896392,2.33434982 C16.1240826,0.990956741 13.8358909,0.197133558 11.3616244,0.197133558 C11.0024566,0.197133558 10.6490587,0.215885287 10.2985456,0.248580609 C10.4663495,0.545723387 10.6649255,0.951049216 10.8538852,1.39291688 L14.5325898,9.87398721" id="Fill-9" fill="#FFFFFF" mask="url(#mask-2)"></path>
                        <path d="M5.20817245,2.00980067 C2.07519131,4.03306412 0,7.55261936 0,11.5577963 C0,15.4153635 1.92325423,18.8200043 4.86102506,20.8745206 L8.97005772,12.9699457 C9.41721433,12.1145784 9.43500443,10.7077179 9.01140769,9.8417727 L5.20817245,2.00980067" id="Fill-11" fill="#FFFFFF" mask="url(#mask-2)"></path>
                    </g>
                    <path d="M14.7008745,13.2882443 C14.6446193,13.5579807 14.5638426,13.8104078 14.4595061,14.0267739 L10.1720916,22.867012 C10.013904,23.1949268 9.85186979,23.5026475 9.70570246,23.7603636 C10.2461369,23.8387362 10.7985917,23.8815286 11.3616244,23.8815286 C14.0710087,23.8815286 16.5577765,22.9309602 18.5103603,21.3471603 L14.9013738,13.8724328 C14.8172314,13.6974166 14.753764,13.4983598 14.7008745,13.2882443" id="Fill-13" fill="#FFFFFF"></path>
                    <path d="M144.044049,1.87276881 C144.044049,1.71506196 144.000775,1.53956501 143.640646,1.53956501 L143.205991,1.53956501 L143.205991,2.2059726 L143.640646,2.2059726 C144.000775,2.2059726 144.044049,2.03095647 144.044049,1.87276881 Z M144.307535,3.0748027 L144.088284,3.0748027 L143.644493,2.38195036 L143.205991,2.38195036 L143.205991,3.0748027 L143.021358,3.0748027 L143.021358,1.36310643 L143.64882,1.36310643 C144.017123,1.36310643 144.232528,1.53042955 144.232528,1.85930603 C144.232528,2.25453477 143.917114,2.33819633 143.838261,2.3550248 L144.307535,3.0748027 Z M142.222727,2.21847375 C142.222727,2.95652256 142.828552,3.56282846 143.565639,3.56282846 C144.307535,3.56282846 144.908551,2.95652256 144.908551,2.21847375 C144.908551,1.47850169 144.307535,0.871714979 143.565639,0.871714979 C142.828552,0.871714979 142.222727,1.47850169 142.222727,2.21847375 Z M142.06502,2.21847375 C142.06502,1.39051281 142.739602,0.718816268 143.565639,0.718816268 C144.395523,0.718816268 145.066258,1.39051281 145.066258,2.21847375 C145.066258,3.04499226 144.395523,3.71620798 143.565639,3.71620798 C142.739602,3.71620798 142.06502,3.04499226 142.06502,2.21847375 L142.06502,2.21847375 Z" id="Fill-14" fill="#FFFFFF"></path>
                </g>
            </g>
        </g>
    </g>
</svg>