<?xml version="1.0" encoding="UTF-8"?>
<svg width="21px" height="30px" viewBox="0 0 21 30" version="1.1" xmlns="http://www.w3.org/2000/svg" xmlns:xlink="http://www.w3.org/1999/xlink">
    <!-- Generator: Sketch 47.1 (45422) - http://www.bohemiancoding.com/sketch -->
    <title>pdf</title>
    <desc>Created with Sketch.</desc>
    <defs></defs>
    <g id="Page-1" stroke="none" stroke-width="1" fill="none" fill-rule="evenodd">
        <g id="pdf" fill-rule="nonzero" fill="#5C5C5C">
            <path d="M10.0727731,22.5788385 C9.72645636,22.5788385 9.50278803,22.6106897 9.37034663,22.6422686 L9.37034663,27.3094192 C9.50304988,27.3413249 9.71682045,27.3413249 9.90995761,27.3413249 C11.3143915,27.3516152 12.2306933,26.5477132 12.2306933,24.8436479 C12.2406434,23.361833 11.4061421,22.5788385 10.0727731,22.5788385 Z" id="Shape"></path>
            <path d="M4.07625187,22.5578766 C3.76088529,22.5578766 3.54711471,22.5894555 3.43483541,22.6210345 L3.43483541,24.7273503 C3.56738155,24.7589292 3.73035411,24.7698185 3.95344638,24.7698185 C4.77862594,24.7698185 5.28733915,24.3357169 5.28733915,23.6055354 C5.28739152,22.94951 4.84942893,22.5578766 4.07625187,22.5578766 Z" id="Shape"></path>
            <path d="M20.952606,7.18649728 C20.9509302,7.04896552 20.9089825,6.9131216 20.8181222,6.80575318 L15.2563691,0.201125227 C15.2552693,0.199274047 15.2531222,0.198675136 15.2519701,0.196987296 C15.2188204,0.158493648 15.1807481,0.126751361 15.1398479,0.0987658802 C15.1276983,0.0905989111 15.1149726,0.0832486388 15.1022469,0.0757894737 C15.0668978,0.055862069 15.0298728,0.0393103448 14.9907007,0.0272232305 C14.9807506,0.0240653358 14.9708005,0.019600726 14.9603267,0.01676951 C14.9183791,0.00620689655 14.8747556,0 14.8310798,0 L1.16259352,0 C0.538982544,0 0.0314214464,0.527749546 0.0314214464,1.176098 L0.0314214464,28.8131216 C0.0314214464,29.4617423 0.538982544,29.9892196 1.16259352,29.9892196 L19.8269327,29.9892196 C20.4505436,29.9892196 20.9581571,29.4617423 20.9581571,28.8131216 L20.9581571,7.2523775 C20.9581047,7.23027223 20.9548055,7.20860254 20.952606,7.18649728 Z M6.19321945,25.2562432 C5.66408229,25.7747368 4.88022195,26.007931 3.9639202,26.007931 C3.76062344,26.007931 3.57686035,25.9970417 3.43488778,25.9763521 L3.43488778,28.5265699 L1.89785536,28.5265699 L1.89785536,21.488657 C2.37603741,21.404265 3.04824688,21.3405082 3.9950798,21.3405082 C4.95170574,21.3405082 5.63381297,21.5311252 6.09172818,21.9118693 C6.52969077,22.2718693 6.82410973,22.8645191 6.82410973,23.5627949 C6.82410973,24.2616152 6.60070324,24.854265 6.19321945,25.2562432 Z M12.7388828,27.6801452 C12.0169751,28.3043194 10.917591,28.6006171 9.57432419,28.6006171 C8.76998753,28.6006171 8.20026434,28.547804 7.81278554,28.4949909 L7.81278554,21.488657 C8.38292768,21.3939201 9.1263591,21.3405082 9.90995761,21.3405082 C11.2122195,21.3405082 12.0572993,21.5839927 12.7192968,22.1024864 C13.4320399,22.6528857 13.880005,23.531216 13.880005,24.7905082 C13.8794289,26.1560799 13.4010898,27.0978403 12.7388828,27.6801452 Z M19.0922993,22.7164247 L16.4554638,22.7164247 L16.4554638,24.3461162 L18.9188529,24.3461162 L18.9188529,25.6588203 L16.4554638,25.6588203 L16.4554638,28.5265699 L14.8984788,28.5265699 L14.8984788,21.3939201 L19.0922993,21.3939201 L19.0922993,22.7164247 Z M1.16259352,19.9683485 L1.16259352,1.176098 L14.2654938,1.176098 L14.2654938,7.19324864 C14.2654938,7.51780399 14.5184888,7.78127042 14.8310798,7.78127042 L19.8269327,7.78127042 L19.8275087,19.9683485 L1.16259352,19.9683485 Z" id="Shape"></path>
            <path d="M16.2975187,12.6389292 C16.2643691,12.6357169 15.4673641,12.5600907 14.2439701,12.5600907 C13.8606808,12.5600907 13.474616,12.5678766 13.0934738,12.5827949 C10.6775312,10.6978584 8.69871322,8.81145191 7.63933915,7.75426497 C7.65866334,7.63785844 7.67196509,7.54584392 7.67814464,7.47517241 C7.81786534,5.94168784 7.66253865,4.90644283 7.21802993,4.39813067 C6.92696259,4.06595281 6.49947382,3.9554265 6.05370823,4.08201452 C5.77688529,4.15742287 5.26445387,4.43662432 5.10038155,5.00499093 C4.91923691,5.6330853 5.21040898,6.3953902 5.97536409,7.27938294 C5.98751372,7.29277677 6.24710723,7.57557169 6.71879551,8.05475499 C6.41222693,9.57451906 5.60972319,12.8541016 5.2203591,14.4289655 C4.30583791,14.9370054 3.54386783,15.5489837 2.95398254,16.2510163 L2.91533416,16.2969691 L2.89035411,16.3521234 C2.82960599,16.4848094 2.53921945,17.1735572 2.75723192,17.7268421 C2.85678554,17.9783848 3.04332419,18.1621416 3.29673815,18.2586207 L3.36466085,18.2776225 C3.36466085,18.2776225 3.42593267,18.2913975 3.53365586,18.2913975 C4.00550125,18.2913975 5.17018953,18.0335935 5.79490025,15.640127 L5.94624688,15.0337024 C8.12684289,13.9317604 10.852601,13.5762795 12.8283292,13.4772414 C13.8446035,14.2607804 14.8559027,14.9805626 15.8357805,15.6179673 L15.8677781,15.6372414 C15.9152768,15.6625045 16.3449651,15.8830672 16.8481796,15.8835572 L16.8481796,15.8835572 C17.5673117,15.8835572 18.0925736,15.4247368 18.2881197,14.6251361 L18.2980175,14.5704719 C18.3526908,14.1135027 18.2422444,13.7016152 17.9787756,13.3796189 C17.4237681,12.7013249 16.3903691,12.642196 16.2975187,12.6389292 Z M3.55125187,17.4089292 C3.54685287,17.4034846 3.5447581,17.3983666 3.5425586,17.3925953 C3.49563591,17.2751543 3.55193267,16.9902904 3.63478055,16.7815971 C3.99047132,16.3681307 4.41743641,15.9885844 4.91012469,15.6468784 C4.4303192,17.2616515 3.73255362,17.4012523 3.55125187,17.4089292 Z M6.59766584,6.68030853 L6.59766584,6.68030853 C5.86083292,5.82756806 5.87188279,5.40479129 5.91152618,5.26246824 C5.97656858,5.02459165 6.27014963,4.93470054 6.27266334,4.93388385 C6.42055362,4.89206897 6.51031421,4.90029038 6.59022943,4.9914882 C6.77095511,5.19789474 6.92617706,5.8208167 6.86485287,6.96343013 C6.69088279,6.78168784 6.59766584,6.68030853 6.59766584,6.68030853 Z M6.21694264,13.9419964 L6.22966833,13.8914701 L6.22799252,13.892069 C6.59693267,12.3897278 7.12900249,10.1899274 7.43494264,8.7768784 L7.44599252,8.78782214 L7.44709227,8.78107078 C8.43686783,9.75010889 9.95452369,11.1675136 11.7716783,12.641706 L11.7512544,12.6425771 L11.7813142,12.6661525 C10.0694738,12.8164791 8.0248803,13.1673321 6.21694264,13.9419964 Z M17.4591172,14.4348457 C17.3287706,14.9328131 17.0780274,15.0008711 16.8482319,15.0008711 L16.8482319,15.0008711 C16.5814638,15.0008711 16.3246459,14.8854446 16.2660973,14.8575681 C15.5988628,14.4227586 14.9162319,13.9489655 14.2274214,13.442069 C14.2329202,13.442069 14.2378953,13.442069 14.2439701,13.442069 C15.4248404,13.442069 16.2113716,13.5166062 16.2422693,13.5188929 C16.4394913,13.5265154 17.0636259,13.6223412 17.3325935,13.9510889 C17.4380648,14.0799637 17.4784414,14.2339927 17.4591172,14.4348457 Z" id="Shape"></path>
        </g>
    </g>
</svg>