<svg width="21px" height="22px" viewBox="0 0 21 22" version="1.1" xmlns="http://www.w3.org/2000/svg" xmlns:xlink="http://www.w3.org/1999/xlink">
    <!-- Generator: Sketch 46.2 (44496) - http://www.bohemiancoding.com/sketch -->
    <desc>Created with Sketch.</desc>
    <defs></defs>
    <g id="Desktop" stroke="none" stroke-width="1" fill="none" fill-rule="evenodd">
        <g id="Dashboard" transform="translate(-1075.000000, -640.000000)" fill-rule="nonzero" fill="#8D8D8D">
            <g id="Body" transform="translate(310.000000, 81.000000)">
                <g id="Supplier-Status" transform="translate(750.000000, 539.000000)">
                    <g id="Title" transform="translate(15.000000, 20.000000)">
                        <g id="Supliers-Icon" transform="translate(0.386719, 0.500000)">
                            <rect id="Rectangle-path" transform="translate(2.531771, 11.058756) rotate(77.484243) translate(-2.531771, -11.058756) " x="2.03041925" y="10.5601882" width="1" height="1"></rect>
                            <path d="M18.5525375,9.65858357 L18.5525375,7.95108752 L16.2334704,7.95108752 L16.2334704,8.40264303 L12.5892219,6.42878556 L12.5892219,3.84103786 C12.5892219,3.68897331 12.5739823,3.53624617 12.5441657,3.3861694 L12.1797409,1.56570165 C11.9985224,0.658283788 11.1954625,0 10.2701547,0 C9.3448469,0 8.54178706,0.658283788 8.36023723,1.56570165 L7.99581239,3.38650069 C7.96632711,3.53624617 7.95108752,3.68897331 7.95108752,3.84103786 L7.95108752,6.42878556 L4.30683907,8.40264303 L4.30683907,7.95108752 L1.98777188,7.95108752 L1.98777188,9.65858357 L0,10.7352933 L0,12.5892219 L0.691082024,12.5892219 L7.95108752,11.3266555 L7.95108752,13.9495205 C7.95108752,14.7585436 8.07499197,15.5572966 8.30722998,16.3302086 L4.9694297,18.7132158 L4.9694297,20.5403094 L5.67276965,20.5403094 L9.39023436,19.6106948 L9.69999548,20.5403094 L10.8399827,20.5403094 L11.1497438,19.6106948 L14.8277843,20.5303706 L15.5708797,20.5403094 L15.5708797,18.7132158 L12.2330794,16.3298773 C12.4653175,15.5569653 12.5892219,14.7585436 12.5892219,13.9491892 L12.5892219,11.3263242 L19.8210673,12.5839212 L20.5403094,12.5892219 L20.5403094,10.7352933 L18.5525375,9.65858357 Z M2.65036251,8.61367815 L3.64424845,8.61367815 L3.64424845,8.76143586 L2.65036251,9.29979074 L2.65036251,8.61367815 Z M7.95108752,9.34153395 L3.57235736,10.3145483 L3.71613953,10.961568 L7.95108752,10.0206893 L7.95108752,10.654126 L0.662590627,11.9216619 L0.662590627,11.1298661 L7.95108752,7.1818198 L7.95108752,9.34153395 Z M5.63202033,19.8674486 L5.63202033,19.0544499 L8.5179338,16.9937931 L9.18019313,18.9809024 L5.63202033,19.8674486 Z M10.3625861,19.8777188 L10.177392,19.8777188 L9.00460662,16.3587 C8.74520239,15.5804873 8.61367815,14.7698077 8.61367815,13.9491892 L8.61367815,3.84103786 C8.61367815,3.732373 8.6242796,3.62304555 8.64581379,3.51636846 L9.01023864,1.69590071 C9.12983625,1.09725008 9.65957745,0.662590627 10.2701547,0.662590627 C10.880732,0.662590627 11.4104732,1.09725008 11.5304021,1.69556941 L11.8948269,3.51570587 C11.9160298,3.62304555 11.9266313,3.732373 11.9266313,3.84103786 L11.9266313,13.9495205 C11.9266313,14.770139 11.795107,15.5808186 11.5357028,16.3587 L10.3625861,19.8777188 Z M14.9082891,19.0544499 L14.9082891,19.8674486 L11.3601163,18.9805711 L12.0223756,16.9934618 L14.9082891,19.0544499 Z M16.896061,8.61367815 L17.8899469,8.61367815 L17.8899469,9.29979074 L16.896061,8.76143586 L16.896061,8.61367815 Z M19.8777188,11.9216619 L12.5892219,10.654126 L12.5892219,10.0206893 L16.8241699,10.9618993 L16.9679521,10.3148796 L12.5892219,9.34186525 L12.5892219,7.1821511 L19.8777188,11.1301973 L19.8777188,11.9216619 Z" id="Shape"></path>
                            <rect id="Rectangle-path" transform="translate(18.013074, 11.056819) rotate(12.526943) translate(-18.013074, -11.056819) " x="17.511529" y="10.5583026" width="1" height="1"></rect>
                        </g>
                    </g>
                </g>
            </g>
        </g>
    </g>
</svg>