<svg width="27px" height="21px" viewBox="0 0 27 21" version="1.1" xmlns="http://www.w3.org/2000/svg" xmlns:xlink="http://www.w3.org/1999/xlink">
    <!-- Generator: Sketch 46.2 (44496) - http://www.bohemiancoding.com/sketch -->
    <desc>Created with Sketch.</desc>
    <defs></defs>
    <g id="Desktop" stroke="none" stroke-width="1" fill="none" fill-rule="evenodd">
        <g id="Dashboard" transform="translate(-1076.000000, -322.000000)" fill-rule="nonzero" fill="#8D8D8D">
            <g id="Body" transform="translate(310.000000, 81.000000)">
                <g id="KPI" transform="translate(45.000000, 174.000000)">
                    <g id="Response-Times" transform="translate(705.000000, 48.000000)">
                        <g id="Stopwatch-Icon" transform="translate(16.550781, 19.783691)">
                            <path d="M24.904541,6.04657324 C25.0942383,6.23627051 25.3977539,6.23627051 25.5820313,6.04657324 L26.2595215,5.36908301 C26.4492188,5.17938574 26.4492188,4.87587012 26.2595215,4.69159277 L24.7256836,3.15775488 C24.5359863,2.96805762 24.2324707,2.96805762 24.0481934,3.15775488 L23.3707031,3.83524512 C23.1810059,4.02494238 23.1810059,4.32845801 23.3707031,4.51273535 L23.4357422,4.57777441 L22.9587891,5.05472754 C21.7555664,4.10082129 20.2976074,3.46669043 18.6987305,3.28241309 L18.6987305,2.41522559 L19.2244629,2.41522559 C19.4900391,2.41522559 19.701416,2.19842871 19.701416,1.93827246 L19.701416,0.529092773 C19.701416,0.263516602 19.4846191,0.0521396484 19.2244629,0.0521396484 L16.1784668,0.0521396484 C15.9128906,0.0521396484 15.7015137,0.268936523 15.7015137,0.529092773 L15.7015137,1.93827246 C15.7015137,2.20384863 15.9183105,2.41522559 16.1784668,2.41522559 L16.7041992,2.41522559 L16.7041992,3.28241309 C15.1053223,3.47211035 13.6419434,4.10624121 12.4441406,5.05472754 L11.9671875,4.57777441 L12.0322266,4.51273535 C12.2219238,4.32303809 12.2219238,4.01952246 12.0322266,3.83524512 L11.3547363,3.15775488 C11.1650391,2.96805762 10.8615234,2.96805762 10.6772461,3.15775488 L9.1434082,4.69159277 C8.95371094,4.88129004 8.95371094,5.18480566 9.1434082,5.36908301 L9.82089844,6.04657324 C10.0105957,6.23627051 10.3141113,6.23627051 10.4983887,6.04657324 L10.5634277,5.98153418 L11.0403809,6.4584873 C9.90219727,7.90018652 9.22470703,9.72128027 9.22470703,11.6941318 C9.22470703,16.3661045 13.0294922,20.1708896 17.7014648,20.1708896 C22.3734375,20.1708896 26.1782227,16.3661045 26.1782227,11.6941318 C26.1782227,9.72128027 25.4953125,7.90018652 24.3625488,6.4584873 L24.839502,5.98153418 L24.904541,6.04657324 Z M17.7014648,18.2088779 C14.1134766,18.2088779 11.1921387,15.28754 11.1921387,11.6995518 C11.1921387,8.11156348 14.1134766,5.19022559 17.7014648,5.19022559 C21.2894531,5.19022559 24.210791,8.11156348 24.210791,11.6995518 C24.210791,15.28754 21.2894531,18.2088779 17.7014648,18.2088779 Z" id="Shape"></path>
                            <path d="M3.44165039,13.9705532 C2.97553711,13.9705532 2.6015625,14.3499478 2.6015625,14.8106411 C2.6015625,15.2767544 2.98095703,15.650729 3.44165039,15.650729 L7.99980469,15.650729 C8.09194336,15.650729 8.17324219,15.6344692 8.25454102,15.6073696 C8.03774414,15.0816372 7.85888672,14.5342251 7.73422852,13.9651333 L3.44165039,13.9651333 L3.44165039,13.9705532 Z" id="Shape"></path>
                            <path d="M8.24912109,7.80262793 C8.17324219,7.78094824 8.08652344,7.75926855 7.99980469,7.75926855 L0.840087891,7.75926855 C0.373974609,7.75926855 0,8.13866309 0,8.59935645 C0,9.06546973 0.379394531,9.43944434 0.840087891,9.43944434 L7.72880859,9.43944434 C7.8534668,8.8866123 8.0269043,8.33378027 8.24912109,7.80262793 Z" id="Shape"></path>
                            <path d="M7.47949219,11.6995518 C7.47949219,11.4177158 7.49575195,11.1412998 7.51743164,10.8648838 L2.01079102,10.8648838 C1.54467773,10.8648838 1.17070312,11.2442783 1.17070312,11.7049717 C1.17070312,12.165665 1.55009766,12.5450596 2.01079102,12.5450596 L7.51201172,12.5450596 C7.49575195,12.2686436 7.47949219,11.9868618 7.47949219,11.6995518 Z" id="Shape"></path>
                            <path d="M21.7935059,9.27690088 C21.6525879,9.04384424 21.3599121,8.95170557 21.1160156,9.07636377 L18.1838379,10.5126431 C17.8207031,10.3663052 17.3979492,10.3825649 17.0348145,10.5939419 C16.4223633,10.9570767 16.2164062,11.7483853 16.579541,12.3608364 C16.9426758,12.9732876 17.7339844,13.1792446 18.3464355,12.8161099 C18.7095703,12.599313 18.9263672,12.2361782 18.9697266,11.8513638 L21.641748,9.97065088 C21.8693848,9.81341895 21.9344238,9.51532324 21.7935059,9.27690088 Z M18.243457,11.8404697 C18.1621582,12.1439854 17.8532227,12.3228428 17.555127,12.2469639 C17.2516113,12.165665 17.0727539,11.8567295 17.1486328,11.5586338 C17.2299316,11.2551182 17.5388672,11.0762607 17.8369629,11.1521396 C18.1404785,11.2280728 18.3193359,11.542374 18.243457,11.8404697 Z" id="Shape"></path>
                            <path d="M19.5333984,8.46927832 C19.7881348,8.61561621 20.1133301,8.52347754 20.254248,8.26874121 C20.4005859,8.01400488 20.3084473,7.68880957 20.0537109,7.5478916 C19.7989746,7.40155371 19.4791992,7.49369238 19.3328613,7.74842871 C19.2353027,7.92186621 19.2461426,8.12240332 19.3382812,8.27958105 C19.3870605,8.35004004 19.4520996,8.42055322 19.5333984,8.46927832 Z" id="Shape"></path>
                            <path d="M17.6689453,7.98148535 C17.9616211,7.98148535 18.1946777,7.74300879 18.1946777,7.45033301 C18.1946777,7.15765723 17.9562012,6.92460059 17.6635254,6.92460059 C17.3708496,6.92460059 17.137793,7.16307715 17.137793,7.45575293 C17.137793,7.55331152 17.1648926,7.6454502 17.208252,7.7213291 C17.3003906,7.87856104 17.4738281,7.98695947 17.6689453,7.98148535 Z" id="Shape"></path>
                            <path d="M17.7394043,15.4285122 L17.7394043,15.4285122 C17.4467285,15.4339321 17.2136719,15.6724087 17.2136719,15.9650845 C17.2136719,16.0626431 17.2407715,16.1493618 17.2841309,16.2252407 C17.3762695,16.3824185 17.549707,16.4908169 17.7448242,16.485397 C18.0375,16.4799771 18.2705566,16.2415005 18.2651367,15.9488247 C18.2705566,15.6669346 18.0320801,15.4285122 17.7394043,15.4285122 Z" id="Shape"></path>
                            <path d="M19.5930176,14.9136196 C19.3437012,15.0599575 19.2569824,15.3851528 19.4087402,15.6344692 L19.4087402,15.6344692 C19.5550781,15.8892056 19.8802734,15.9705044 20.1350098,15.8187466 C20.3843262,15.6724087 20.4710449,15.3472134 20.3192871,15.097897 C20.1675293,14.8485264 19.842334,14.7672275 19.5930176,14.9136196 Z" id="Shape"></path>
                            <path d="M21.6634277,13.3418423 C21.4086914,13.2009243 21.0834961,13.2876431 20.9425781,13.5423794 C20.8450195,13.7158169 20.8558594,13.9109341 20.947998,14.0735317 C20.9913574,14.1494106 21.0618164,14.2198696 21.1431152,14.263229 C21.3978516,14.4095669 21.7230469,14.3174282 21.8639648,14.0626919 C22.0048828,13.8079556 21.9181641,13.4827603 21.6634277,13.3418423 Z" id="Shape"></path>
                            <path d="M13.9725586,11.7483853 C13.9725586,11.4557095 13.7286621,11.2226528 13.4414062,11.2226528 C13.1487305,11.2280728 12.9156738,11.4665493 12.9156738,11.7592251 C12.9156738,11.8567837 12.9427734,11.9435024 12.9861328,12.0193813 C13.0782715,12.1765591 13.251709,12.2849575 13.4468262,12.2795376 C13.7449219,12.2794834 13.9779785,12.041061 13.9725586,11.7483853 Z" id="Shape"></path>
                            <path d="M13.7720215,13.417667 C13.5227051,13.5640049 13.4359863,13.8892002 13.5877441,14.1385166 L13.5877441,14.1385166 C13.734082,14.387833 14.0592773,14.4745518 14.3140137,14.3227939 C14.5633301,14.1764561 14.6446289,13.8512607 14.498291,13.5965244 C14.3465332,13.3526279 14.0213379,13.2659634 13.7720215,13.417667 Z" id="Shape"></path>
                            <path d="M21.4249512,11.6724521 C21.4249512,11.7700107 21.4520508,11.8567295 21.5008301,11.9380283 C21.5929688,12.0952061 21.7664063,12.1981846 21.9615234,12.1981846 C22.2541992,12.1981846 22.4872559,11.9542881 22.4872559,11.6670322 C22.4872559,11.3743564 22.2487793,11.1412998 21.9561035,11.1412998 C21.6580078,11.1412998 21.4195313,11.3851963 21.4249512,11.6724521 Z" id="Shape"></path>
                            <path d="M13.734082,10.084415 C13.9888184,10.2307529 14.3140137,10.1386143 14.4549316,9.88387793 L14.4549316,9.88387793 C14.5958496,9.6291416 14.5091309,9.30936621 14.2489746,9.16302832 C13.9942383,9.02211035 13.6744629,9.1088291 13.528125,9.36356543 C13.4359863,9.53158301 13.4414062,9.73212012 13.5335449,9.89471777 C13.5823242,9.97059668 13.6473633,10.0356899 13.734082,10.084415 Z" id="Shape"></path>
                            <path d="M15.7990723,8.50721777 C15.7990723,8.50721777 15.8044922,8.50721777 15.8044922,8.50179785 C15.8099121,8.50179785 15.8099121,8.50179785 15.8099121,8.49637793 C15.8099121,8.49637793 15.8099121,8.49637793 15.815332,8.49637793 C16.0646484,8.35004004 16.1459473,8.02484473 15.9996094,7.77552832 C15.8532715,7.52079199 15.5280762,7.43949316 15.2733398,7.58583105 C15.2733398,7.58583105 15.2679199,7.58583105 15.2679199,7.59125098 C15.2625,7.59125098 15.2625,7.5966709 15.2570801,7.5966709 C15.0077637,7.74300879 14.9210449,8.0682041 15.0728027,8.31752051 L15.0728027,8.31752051 C15.2245605,8.57231104 15.5497559,8.65360986 15.7990723,8.50721777 Z" id="Shape"></path>
                            <path d="M15.8695312,14.9515049 C15.6147949,14.805167 15.2895996,14.8973057 15.1486816,15.152042 C15.051123,15.3254795 15.0619629,15.5260166 15.1541016,15.6831943 C15.1974609,15.7590732 15.2679199,15.8295322 15.3492187,15.8783115 C15.6039551,16.0192295 15.9291504,15.9270908 16.0700684,15.6777744 C16.2164062,15.4176182 16.1242676,15.0978428 15.8695312,14.9515049 Z" id="Shape"></path>
                        </g>
                    </g>
                </g>
            </g>
        </g>
    </g>
</svg>