<svg width="23px" height="24px" viewBox="0 0 23 24" version="1.1" xmlns="http://www.w3.org/2000/svg" xmlns:xlink="http://www.w3.org/1999/xlink">
    <!-- Generator: Sketch 46.2 (44496) - http://www.bohemiancoding.com/sketch -->
    <desc>Created with Sketch.</desc>
    <defs></defs>
    <g id="Desktop" stroke="none" stroke-width="1" fill="none" fill-rule="evenodd">
        <g id="Dashboard" transform="translate(-361.000000, -32.000000)" fill-rule="nonzero" fill="#8D8D8D">
            <g id="Header" transform="translate(324.000000, -4.000000)">
                <g id="Search-TxtBox" transform="translate(4.000000, 25.000000)">
                    <g id="Search-Icon" transform="translate(32.652344, 11.652344)">
                        <path d="M22.6238545,22.435264 L16.1220779,15.6735739 C17.7804488,14.0103898 18.8078512,11.7175499 18.8078512,9.18886244 C18.8078512,4.12186115 14.68599,0 9.61898872,0 C4.55198743,0 0.430126275,4.12186115 0.430126275,9.18886244 C0.430126275,14.2558637 4.55198743,18.3777249 9.61898872,18.3777249 C11.843131,18.3777249 13.8843712,17.5826695 15.475357,16.2634114 L21.9928859,23.0417289 C22.0786486,23.1314297 22.1932906,23.1760613 22.3083702,23.1760613 C22.4177614,23.1760613 22.5267151,23.1353678 22.6116026,23.0539807 C22.7857535,22.8863934 22.7910042,22.6094148 22.6238545,22.435264 Z M9.61898872,17.5025951 C5.03462149,17.5025951 1.30525603,13.7732297 1.30525603,9.18886244 C1.30525603,4.60449521 5.03462149,0.875129757 9.61898872,0.875129757 C14.2033559,0.875129757 17.9327214,4.60449521 17.9327214,9.18886244 C17.9327214,13.7732297 14.2029184,17.5025951 9.61898872,17.5025951 Z" id="Shape"></path>
                    </g>
                </g>
            </g>
        </g>
    </g>
</svg>