<svg width="24px" height="18px" viewBox="0 0 24 18" version="1.1" xmlns="http://www.w3.org/2000/svg" xmlns:xlink="http://www.w3.org/1999/xlink">
    <!-- Generator: Sketch 46.2 (44496) - http://www.bohemiancoding.com/sketch -->
    <desc>Created with Sketch.</desc>
    <defs></defs>
    <g id="Desktop" stroke="none" stroke-width="1" fill="none" fill-rule="evenodd">
        <g id="Dashboard" transform="translate(-750.000000, -324.000000)" fill-rule="nonzero" fill="#8D8D8D">
            <g id="Body" transform="translate(310.000000, 81.000000)">
                <g id="KPI" transform="translate(45.000000, 174.000000)">
                    <g id="Bookings" transform="translate(374.000000, 48.000000)">
                        <g id="Flight-icon" transform="translate(21.000000, 21.316406)">
                            <path d="M9.31335938,6.24820312 L2.59359375,1.88625 L3.41882813,1.06101563 C3.89039063,0.825234375 4.36195313,0.70734375 4.83351563,0.70734375 C7.0734375,0.943125 12.6142969,2.59359375 14.7363281,3.3009375 L19.4519531,0.70734375 C20.2771875,0.23578125 22.8707813,-0.353671875 23.3423438,0.4715625 C23.8139063,1.29679688 22.0455469,3.3009375 21.2203125,3.7725 C21.2203125,3.7725 11.6711719,9.66703125 8.25234375,11.1996094 C7.42710938,11.5532812 5.54085938,12.1427344 4.715625,12.1427344 C4.00828125,12.1427344 2.71148438,11.6711719 2.12203125,11.1996094 C1.53257813,10.4922656 0,7.66289062 0,7.66289062 L0.4715625,6.36609375 L4.715625,8.72390625 L9.31335938,6.24820312 Z M0.943125,16.97625 L14.7363281,16.97625 L14.7363281,14.9721094 L0.943125,14.9721094 L0.943125,16.97625 Z" id="Shape"></path>
                        </g>
                    </g>
                </g>
            </g>
        </g>
    </g>
</svg>