<svg width="27px" height="25px" viewBox="0 0 27 25" version="1.1" xmlns="http://www.w3.org/2000/svg" xmlns:xlink="http://www.w3.org/1999/xlink">
    <!-- Generator: Sketch 46.2 (44496) - http://www.bohemiancoding.com/sketch -->
    <desc>Created with Sketch.</desc>
    <defs></defs>
    <g id="Desktop" stroke="none" stroke-width="1" fill="none" fill-rule="evenodd" opacity="0.632133152">
        <g id="Dashboard" transform="translate(-1113.000000, -29.000000)" fill-rule="nonzero" fill="#8E8E8E">
            <g id="Header" transform="translate(324.000000, -4.000000)">
                <g id="Logged-in-as" transform="translate(321.000000, 4.000000)">
                    <g id="Logged-in-as-SuperAdmin" transform="translate(468.000000, 29.000000)">
                        <g id="Icon">
                            <path d="M17.435464,12.1893952 C19.1327215,11.1093222 20.2127945,9.10347233 20.2127945,6.94332636 C20.2127945,3.54881125 17.435464,0.617184565 13.8866527,0.617184565 C10.4921376,0.617184565 7.56051092,3.39451511 7.56051092,6.94332636 C7.56051092,9.10347233 8.64058391,10.955026 10.3378415,12.1893952 C4.78318038,13.7323566 0.771480706,18.8241292 0.771480706,24.8416787 L2.31444212,24.8416787 C2.31444212,21.6014598 3.54881125,18.8241292 5.70895723,16.6639833 C7.8691032,14.5038373 10.6464337,13.2694681 13.8866527,13.2694681 C17.1268717,13.2694681 19.9042022,14.5038373 22.0643482,16.6639833 C24.2244942,18.8241292 25.4588633,21.6014598 25.4588633,24.8416787 L27.0018247,24.8416787 C27.0018247,18.8241292 22.990125,13.7323566 17.435464,12.1893952 Z M9.10347233,7.0976225 C9.10347233,4.4745881 11.2636183,2.31444212 13.8866527,2.31444212 C16.5096871,2.31444212 18.6698331,4.4745881 18.6698331,7.0976225 C18.6698331,9.7206569 16.5096871,11.8808029 13.8866527,11.8808029 C11.2636183,11.7265067 9.10347233,9.56636076 9.10347233,7.0976225 Z" id="Shape"></path>
                        </g>
                    </g>
                </g>
            </g>
        </g>
    </g>
</svg>